<svg width="150" height="92" viewBox="0 0 150 92" fill="none" xmlns="http://www.w3.org/2000/svg">
<path d="M91.3636 46.0002C91.3636 56.2754 87.9471 66.2548 81.6589 74.3471C75.3707 82.4395 66.5728 88.1788 56.6682 90.65C46.7635 93.1211 36.3223 92.1818 27.0095 87.9819C17.6967 83.7819 10.0485 76.5631 5.28438 67.4765C0.520279 58.3899 -1.08538 47.9587 0.723424 37.8462C2.53223 27.7337 7.65134 18.5221 15.2645 11.6803C22.8777 4.83857 32.5465 0.760508 42.7294 0.0964172C52.9122 -0.567674 63.0227 2.22044 71.4487 8.0162L53.9608 33.7958C51.2535 31.9336 48.005 31.0378 44.7332 31.2512C41.4614 31.4646 38.3548 32.7748 35.9087 34.9731C33.4625 37.1714 31.8178 40.1311 31.2366 43.3803C30.6554 46.6294 31.1713 49.981 32.702 52.9006C34.2327 55.8201 36.6901 58.1395 39.6824 59.489C42.6746 60.8384 46.0294 61.1402 49.2118 60.3462C52.3941 59.5523 55.2209 57.7082 57.2413 55.1081C59.2618 52.508 60.3595 49.3016 60.3595 46.0002H91.3636Z" fill="url(#paint0_linear)"/>
<rect x="60.3794" y="45.6003" width="30.9842" height="46.3999" fill="url(#paint1_linear)"/>
<path d="M107.467 79.2947C113.321 79.5339 119.155 78.4766 124.543 76.2C129.93 73.9234 134.735 70.4851 138.606 66.1364C142.477 61.7878 145.316 56.6388 146.916 51.0658C148.516 45.4928 148.836 39.6367 147.853 33.9258C146.869 28.2148 144.608 22.7932 141.233 18.0575C137.859 13.3218 133.456 9.39165 128.348 6.55435C123.24 3.71705 117.556 2.04436 111.71 1.65855C105.864 1.27274 100.005 2.18359 94.5605 4.32448L104.442 28.8918C106.184 28.2068 108.059 27.9154 109.929 28.0388C111.799 28.1623 113.618 28.6974 115.252 29.6052C116.887 30.513 118.295 31.7705 119.375 33.2856C120.455 34.8008 121.178 36.5354 121.493 38.3626C121.807 40.1898 121.705 42.0635 121.193 43.8465C120.681 45.6296 119.773 47.277 118.534 48.6684C117.296 50.0597 115.759 51.1598 114.035 51.8882C112.311 52.6166 110.445 52.9548 108.572 52.8783L107.467 79.2947Z" fill="url(#paint2_linear)"/>
<path d="M95.5381 56.4873C95.5381 56.4873 102.641 52.7384 107.505 52.7384C114.343 52.7384 120.682 45.9998 120.682 45.9998L136.513 80.8132L112.363 91.9996L95.5381 56.4873Z" fill="url(#paint3_linear)"/>
<defs>
<linearGradient id="paint0_linear" x1="45.6818" y1="0.000244141" x2="45.6818" y2="92.0001" gradientUnits="userSpaceOnUse">
<stop stop-color="#7900B2"/>
<stop offset="1" stop-color="#5435C2"/>
<stop offset="1" stop-color="#5435C2"/>
</linearGradient>
<linearGradient id="paint1_linear" x1="75.8715" y1="45.6003" x2="75.8715" y2="92.0003" gradientUnits="userSpaceOnUse">
<stop stop-color="#7900B2"/>
<stop offset="1" stop-color="#5435C2"/>
<stop offset="1" stop-color="#5435C2"/>
</linearGradient>
<linearGradient id="paint2_linear" x1="107.467" y1="79.2947" x2="110.642" y2="1.60245" gradientUnits="userSpaceOnUse">
<stop stop-color="#7900B2"/>
<stop offset="1" stop-color="#5435C2"/>
<stop offset="1" stop-color="#5435C2"/>
</linearGradient>
<linearGradient id="paint3_linear" x1="107.613" y1="50.8941" x2="124.129" y2="86.5496" gradientUnits="userSpaceOnUse">
<stop stop-color="#7900B2"/>
<stop offset="1" stop-color="#5435C2"/>
<stop offset="1" stop-color="#5435C2"/>
</linearGradient>
</defs>
</svg>
